<svg xmlns="http://www.w3.org/2000/svg" width="32" height="32"><path fill="#000" d="M4.3 11.8c-2.7 4.7-1 11.8 2 16.1 1.5 2.2 3 4.1 5.1 4.1h.1c1 0 1.7-.3 2.4-.6.8-.3 1.6-.7 2.8-.7 1.2 0 1.9.3 2.7.6.7.3 1.5.6 2.5.6 2.3 0 3.8-2.1 5-4 1.3-1.9 2-3.8 2.2-4.5 0-.1 0-.3-.1-.3-.4-.2-4-1.8-4.1-6.1 0-3.5 2.7-5.4 3.3-5.8.1 0 .1-.1.1-.2v-.2c-1.9-2.8-4.9-3.3-6.2-3.2-.2 0 .2 0 0 0-1.8 0-2.9.5-4 .9-.7.3-1.4.5-1.8.5-.5 0-1.1-.3-1.9-.5-1-.4-2.1-.8-3.3-.8H11c-2.7 0-5.3 1.6-6.7 4.1z"/><path fill="#000" d="M22.3 0c-1.7.1-3.6 1.1-4.8 2.5-1 1.2-2 3.1-1.7 5.1 0 .1.1.2.2.2h.3c1.6 0 3.4-.9 4.6-2.3C22.2 4 22.8 2 22.6.3c-.1-.2-.2-.3-.3-.3z"/></svg>