<svg xmlns="http://www.w3.org/2000/svg" width="340" height="340"><path fill="#fff" d="M119.8 143.6c4.4 0 8 3.5 8 7.9s-3.6 7.9-8 7.9H93.4c-4.4 0-8-3.5-8-7.9s3.6-7.9 8-7.9h26.4zm28.8 154h15.1c4.4 0 8-3.5 8-7.9s-3.6-7.9-8-7.9h-15.1c-4.4 0-8 3.5-8 7.9.1 4.3 3.6 7.9 8 7.9zm100-181c1.6 1.8 3.8 2.7 6 2.7 1.8 0 3.7-.6 5.2-1.9 3.3-2.9 3.7-7.9.8-11.2-7.9-9.1-7.5-29.7.8-42.5 10.6-16.3 12.8-45.3-.8-61-2.9-3.3-7.9-3.7-11.2-.8-3.3 2.9-3.7 7.9-.8 11.2 7.7 8.9 7.5 29.7-.5 42-10.9 16.8-13.3 45.5.5 61.5zm-35.6 0c1.6 1.8 3.8 2.7 6 2.7 1.8 0 3.7-.6 5.2-1.9 3.3-2.9 3.7-7.9.8-11.2-7.9-9.1-7.5-29.7.8-42.5 10.6-16.3 12.8-45.3-.8-61-2.9-3.3-7.9-3.7-11.2-.8-3.3 2.9-3.7 7.9-.8 11.2 7.7 8.9 7.5 29.7-.5 42-11 16.8-13.3 45.5.5 61.5zM97.4 324.2H40.3C26.9 324.2 16 313.3 16 300V60c0-13.4 10.9-24.2 24.3-24.2H176c4.4 0 8-3.5 8-7.9s-3.6-7.9-8-7.9H40.3C18.1 19.8 0 37.8 0 59.9v240C0 322 18.1 340 40.3 340h57.1c4.4 0 8-3.5 8-7.9s-3.6-7.9-8-7.9zm59.8-213.5c0-4.4-3.6-7.9-8-7.9H93.4c-4.4 0-8 3.5-8 7.9s3.6 7.9 8 7.9h55.8c4.4 0 8-3.5 8-7.9zm26.8-42c0-4.4-3.6-7.9-8-7.9H55c-4.4 0-8 3.5-8 7.9v221c0 4.4 3.6 7.9 8 7.9h26.7c4.4 0 8-3.5 8-7.9s-3.6-7.9-8-7.9H62.9V76.6H176c4.4 0 8-3.6 8-7.9zm148 255.4H141.6c-4.4 0-8 3.5-8 7.9s3.6 7.9 8 7.9H332c4.4 0 8-3.5 8-7.9 0-4.3-3.6-7.9-8-7.9zm8-155.1v51.6c0 4.4-3.6 7.9-8 7.9h-28.7v2.9c0 36.5-29.8 66.2-66.5 66.2s-66.5-29.7-66.5-66.2v-79.9c0-4.4 3.6-7.9 8-7.9h117.1c4.4 0 8 3.5 8 7.9v9.5H332c4.4 0 8 3.6 8 8zm-52.6-9.6H186.2v72c0 27.8 22.7 50.3 50.6 50.3 27.9 0 50.6-22.6 50.6-50.3v-72zm36.7 17.5h-20.7v35.8h20.7v-35.8zM138 192.4c0-4.4-3.6-7.9-8-7.9H93.4c-4.4 0-8 3.5-8 7.9s3.6 7.9 8 7.9H130c4.4 0 8-3.6 8-7.9zm-22.5 89.3h-1.3c-4.4 0-8 3.5-8 7.9s3.6 7.9 8 7.9h1.3c4.4 0 8-3.5 8-7.9-.1-4.3-3.6-7.9-8-7.9z"/><path fill="#fff" d="M257.4 217.1c-1-.5-1.2-1.8-.4-2.5 3.1-2.8 4.6-7 3.9-11.2-1-7.4-9.4-10.5-16.7-11.4-.8-.1-1.4-.8-1.4-1.6v-8.9c0-.9-.7-1.6-1.6-1.6H237c-.9 0-1.6.7-1.6 1.6v8.7c0 .9-.7 1.6-1.6 1.6H232c-.9 0-1.6-.7-1.6-1.6v-8.7c0-.9-.7-1.6-1.6-1.6h-4.2c-.9 0-1.6.7-1.6 1.6v8.7c0 .9-.7 1.6-1.6 1.6h-11.7c-.9 0-1.6.7-1.6 1.6v4.5c0 .9.7 1.6 1.6 1.6h4c2.5 0 3.7.7 3.7 2.7v32.7c0 2.7-1.4 3.6-2.8 3.6h-4.1c-.9 0-1.6.7-1.6 1.6v4.6c0 .9.7 1.6 1.6 1.6h11.2c.9 0 1.6.7 1.6 1.6v8.9c0 .9.7 1.6 1.6 1.6h4.3c.9 0 1.6-.7 1.6-1.6v-8.9c0-.9.7-1.6 1.6-1.6h1.8c.9 0 1.6.7 1.6 1.6v8.9c0 .9.7 1.6 1.6 1.6h4.1c.9 0 1.6-.7 1.6-1.6v-8.9c0-.9.7-1.6 1.6-1.6 15.2 0 20.2-7.4 20.2-17.5-.1-5.2-3.1-9.6-7.5-11.7zm-26.8-15.7c0-.9.7-1.6 1.6-1.6h3.7c3.7 0 11 .6 11 6.6.3 3.9-2.5 7.2-6.4 7.8h-8.3c-.9 0-1.6-.7-1.6-1.6v-11.2zm8.2 36.1l-6.6-.1c-.9 0-1.6-.7-1.6-1.6v-12.6c0-.9.7-1.6 1.6-1.6h7.9c2.2 0 10.5.7 10.5 6.6 0 6-3.9 9.3-11.8 9.3z"/></svg>