<svg xmlns="http://www.w3.org/2000/svg" width="340" height="340"><path fill="#FFF" d="M7.4 340c-4.4 0-8-3.6-8-8v-13.2c0-4.4 3.6-8 8-8s8 3.6 8 8V332c0 4.4-3.6 8-8 8zM43.4 340c-4.4 0-8-3.6-8-8v-25.6c0-4.4 3.6-8 8-8s8 3.6 8 8V332c0 4.4-3.6 8-8 8zM79.4 340c-4.4 0-8-3.6-8-8v-9.4c0-4.4 3.6-8 8-8s8 3.6 8 8v9.4c0 4.4-3.6 8-8 8zM115.4 340c-4.4 0-8-3.6-8-8v-13.2c0-4.4 3.6-8 8-8s8 3.6 8 8V332c0 4.4-3.6 8-8 8zM151.4 340c-4.4 0-8-3.6-8-8v-13.2c0-4.4 3.6-8 8-8s8 3.6 8 8V332c0 4.4-3.6 8-8 8zM187.4 340c-4.4 0-8-3.6-8-8v-37.7c0-4.4 3.6-8 8-8s8 3.6 8 8V332c0 4.4-3.6 8-8 8zM223.4 340c-4.4 0-8-3.6-8-8v-5c0-4.4 3.6-8 8-8s8 3.6 8 8v5c0 4.4-3.6 8-8 8zM259.4 340c-4.4 0-8-3.6-8-8v-65.7c0-4.4 3.6-8 8-8s8 3.6 8 8V332c0 4.4-3.6 8-8 8zM295.4 340c-4.4 0-8-3.6-8-8v-98.9c0-4.4 3.6-8 8-8s8 3.6 8 8V332c0 4.4-3.6 8-8 8zM331.4 340c-4.4 0-8-3.6-8-8v-98.9c0-4.4 3.6-8 8-8s8 3.6 8 8V332c0 4.4-3.6 8-8 8zM7.9 298.2c-2.2 0-4.4-.9-6-2.7-2.9-3.3-2.7-8.4.6-11.3l29.9-26.7c2.1-1.9 5.1-2.5 7.8-1.6l60.8 19.6 38.2-48.8c2.6-3.3 7.3-4.1 10.8-1.7l36 24.3 107-108.5c2.6-3.6 7.6-4.3 11.2-1.7 3.6 2.6 4.3 7.6 1.7 11.2L194.3 264.9c-2.5 3.4-7.4 4.3-10.9 1.9l-36.2-24.4-37 47.4c-2.1 2.6-5.6 3.7-8.8 2.7l-61.7-19.9-26.5 23.6c-1.5 1.3-3.4 2-5.3 2z"/><path fill="#FFF" d="M339 110.4l-28.9 71.9c-1.7 4.2-7.8 3.9-9-.5l-7.7-27.3c-.5-1.7-1.8-2.9-3.4-3.3l-27.5-6.9c-4.4-1.1-4.9-7.2-.8-9l71-31.1c3.9-1.7 7.9 2.2 6.3 6.2z"/><g fill="#FFF"><path d="M216.7 80c0 4.4 3.6 8 8 8h17.5c4.4 0 8-3.6 8-8s-3.6-8-8-8h-17.5c-4.4 0-8 3.6-8 8zM216.7 44c0 4.4 3.6 8 8 8h57.7c4.4 0 8-3.6 8-8s-3.6-8-8-8h-57.7c-4.4 0-8 3.6-8 8zM217.7 8c0 4.4 3.6 8 8 8h105.7c4.4 0 8-3.6 8-8s-3.6-8-8-8H225.7c-4.4 0-8 3.6-8 8z"/></g><path fill="none" stroke="#FFF" stroke-width="16" stroke-linejoin="round" stroke-miterlimit="10" d="M142.4 108.9c0 37.1-30.1 67.1-67.1 67.1S8.1 146 8.1 108.9s30.1-67.1 67.1-67.1v67.1h67.2z"/><path fill="none" stroke="#FFF" stroke-width="16" stroke-linecap="round" stroke-linejoin="round" stroke-miterlimit="10" d="M173.7 76.7h-67.1V9.6c37.1 0 67.1 30 67.1 67.1z"/><path fill="none" stroke="#FFF" stroke-width="16" stroke-linecap="round" stroke-linejoin="round" stroke-miterlimit="10" d="M137.9 41.4L162.4 8h30.1M109.8 134.4l28.5 41.6h52"/></svg>