<svg xmlns="http://www.w3.org/2000/svg" x="0px" y="0px" viewBox="0 0 32 32"><path d="M20.6 26h-.9v2H4.1V3.4h15.6v2.1h1.5V2.2C21.2 1 20.2 0 19 0H4.8C3.6 0 2.6 1 2.6 2.2v27.7c0 1.2 1 2.2 2.2 2.2H19c1.2 0 2.2-1 2.2-2.2V26h-.6zM9.6 1.6h4.6c.1 0 .3.1.3.3 0 .1-.1.3-.3.3H9.6c-.1-.1-.3-.2-.3-.4 0-.1.2-.2.3-.2zm2.3 29.3c-.6 0-1.1-.5-1.1-1.1 0-.6.5-1.1 1.1-1.1s1.1.5 1.1 1.1c0 .6-.5 1.1-1.1 1.1zm15-18.9c.1.1.1.1.2.1l-.3.2-.5-.7.1-.1c.1.2.5.5.5.5zm-6.3-5.1c-4.9 0-8.8 4-8.8 8.8 0 4.9 4 8.8 8.8 8.8s8.8-3.9 8.8-8.8c0-4.8-3.9-8.8-8.8-8.8zm-5.2 2.8c.3.5-.4.5-.4.5-.1 0-.2.1-.2.1l.6-.6zm.8 7.7c-.3.3-.2.7-.2.7.4 1.2-.4 1.2-.4 1.2-.5.1-.3.7-.3.7 0 .3-.2.6-.2.6.2.3 0 .6 0 .6 0 .1-.1.1-.1.2-1.5-1.4-2.5-3.5-2.5-5.7 0-.5 0-.9.1-1.4 0-.1.1-.1.1-.1l.3.2c.3-.1.4.3.4.3.2 0 .3.4.3.4.6-.2.7.9.7.9.3 0 .7.4.7.4.6 0 .7.4.7.4.7-.2.4.6.4.6zm.2-8.1c-.1.4-.8.4-1 .4.3-.3.7-.5 1-.7v.3zm10.9 3.9s-.2.4-.6.7c0 0-.7-1.6-1.5-2 0 0 .9 1.5 1.6 2.2 0 0 .2.1.5 0 0 0 0 1.3-.7 2.1 0 0-.2.5-.1 1 0 0 .1.9-.5 1.3 0 0-.3.2-.3.7 0 0 0 .4-.4.4 0 0-.5 1-1.8.8 0 0 0-.7-.4-1.6 0 0-.4-.5.2-1 0 0 .5-.2-.3-1.1 0 0-.5-.4-.2-.9 0 0 .1-.4-.1-.5 0 0-.5.1-.7-.3 0 0-1 .4-1.5.2 0 0-.6.4-1.1-.5 0 0-.8-.5-.5-.9 0 0 .1-.4.1-.9 0 0 .1-.7.9-1 0 0 .2-.7.6-.7 0 0 .8 0 1.1-.2 0 0 .5-.2.8-.1 0 0 .2.3.1.5 0 0 .5-.2.9.2 0 0 .4 0 .3-.3 0 0 .9.5 1.4.2 0 0 .1-.8-.3-.7 0 0-.7 0-1-.4 0 0-.4-.2-.3.1 0 0 0 .2.3.3 0 0-.1.2-.4.1 0 0-.2-.1-.3-.6 0 0-.6-.1-.8-.4 0 0-.4.1.5.5 0 0 .4.3-.1.5 0 0-.3-.2 0-.2 0 0-.1-.2-.4-.3 0 0-.2-.2-.3-.4 0 0-.5.3-.7.1 0 0-.1.4-.3.4 0 0 0 .6-.8.3H20s-.2-.5.1-.7c0 0 .5.1.6 0 .1-.1.2-.3-.1-.4 0 0-.5-.1-.3-.4 0 0 .2-.3.5.1 0 0 .4-.3.9-.3 0 0 .9-.4.7-.7 0 0-.6.3-.9.2 0 0-.8-.3-.1-.9 2.7.3 5.1 1.9 6.3 4.3-.1 0-.3.1-.4.1 0 .2.5.7 0 1.1z"/></svg>
