<svg xmlns="http://www.w3.org/2000/svg" width="340" height="340"><path fill="#FFF" d="M194.9 54.4c-1.5-.6-1.7-2.6-.6-3.6 4.4-3.9 6.6-9.8 5.6-15.8-1.4-10.4-10.9-16-17.1-16-1.1 0-2-1.1-2-2.2V4.2c0-1.2-1-2.2-2.3-2.2h-6.1c-1.3 0-2.3 1-2.3 2.2v12.2c0 1.2-1 2.2-2.3 2.2h-2.5c-1.3 0-2.3-1-2.3-2.2V4.2c0-1.2-1-2.2-2.3-2.2h-6.1c-1.3 0-2.3 1-2.3 2.2v12.2c0 1.2-1 2.2-2.3 2.2h-13.7c-1.3 0-2.3 1-2.3 2.2v6.3c0 1.2 1 2.2 2.3 2.2h5.7c3.6 0 5.3 1 5.3 3.9v46.1c0 3.9-2 5-4.1 5h-5.9c-1.3 0-2.3 1-2.3 2.2V93c0 1.2 1 2.2 2.3 2.2h12.9c1.3 0 2.3 1 2.3 2.2v12.7c0 1.2 1 2.2 2.3 2.2h6.1c1.3 0 2.3-1 2.3-2.2V97.6c0-1.2 1-2.2 2.3-2.2h2.6c1.3 0 2.3 1 2.3 2.2v12.6c0 1.2 1 2.2 2.3 2.2h5.9c1.3 0 2.3-1 2.3-2.2V97.6c0-1.2 1-2.2 2.3-2.2 10.2 0 22.4-10.5 22.4-24.7-.1-7.1-4.4-13.3-10.7-16.3zm-35.1-22.1c0-1.2 1-2.2 2.3-2.2h8.6c5.3 0 15.8.9 15.8 9.4.4 5.4-3.7 10.2-9.2 11H162c-1.3 0-2.3-1-2.3-2.2l.1-16zm15.1 51l-12.8-.1c-1.3 0-2.3-1-2.3-2.2V63.2c0-1.2 1-2.2 2.3-2.2h14.7c3.2 0 15.2 1 15.2 9.4s-5.7 12.9-17.1 12.9zm-96.2 39.2c-.9.6-1.9 1.3-2.8 1.6-9.2 5.3-18.2 11-27.7 16.4-.3.3-.6.3-.9 0-10.1-6-20.2-11.9-29.9-17.6 0 0-.3 0-.3-.3 10.4-17 20.4-34.3 30.8-51.3 10.4 16.9 20.4 34.2 30.8 51.2zm0 18.2c-10.4 14.4-20.4 28.9-30.9 43.4-10.4-14.5-20.4-29-30.8-43.4.9.6 2.2 1.3 3.1 1.9 9.2 5.3 18 10.7 27 16 .3.3.6.3.9 0 10.3-6 20.6-11.9 30.7-17.9zm225.2 17.5c-.6-.2-1.4-.3-2.1-.4-5.7-.6-8.7-4.2-7.9-9.3.6-3.7 2.9-6.4 6.6-6.5s6.6-.6 8.9-1.7c8.5-2.7 14.7-10.5 14.7-20 0-11.6-9.4-20.9-20.9-20.9-11.6 0-20.9 9.4-20.9 20.9 0 3.3.7 6.4 2.1 9.2l1.1 2.8c1.9 4.5.9 8.4-2.8 10.6-4.1 2.5-8.5 1.7-11.5-2.5-3.5-7.1-10.8-11.6-18.7-11.6-11.6 0-20.9 9.4-20.9 20.9 0 8.2 4.7 15.2 11.6 18.7 2.6 1.7 5.8 2.5 10.3 2.3 5.6-.2 10-2.4 13.6-6 1.1-1 2-2.2 2.8-3.4.2-.3.5-.6.6-.9 3.8-5.7 8.8-6.6 13.1-2.8 3.1 2.8 3.4 6.3 1.2 11.1-1.4 2.9-2.1 5.5-2.3 7.8-.1.9-.2 1.7-.2 2.7 0 11.6 9.4 20.9 20.9 20.9 11.6 0 20.9-9.4 20.9-20.9.3-11.5-8.8-20.7-20.2-21zM1.8 279.1c2 2 5.2.3 7.5-1.3.4-.2.7-.5 1.1-.7V332c0 4.4 3.6 8 8 8s8-3.6 8-8v-55c.2.1.4.2.6.4.1.1.2.1.3.2 2.3 1.7 5.6 3.6 7.7 1.6s2.5-5.2 1-7.6c-2.1-3.3-4.1-6.5-6.2-9.8s-4.1-6.6-6.2-9.8c-1.1-1.7-3-2.8-5.1-2.8s-4 1-5.1 2.8c-2.1 3.3-4.2 6.6-6.2 9.8-2.1 3.3-4.1 6.5-6.2 9.8-1.6 2.3-1.2 5.5.8 7.5zm121.3-49c2 2 5.2.3 7.5-1.3.4-.2.7-.5 1.1-.7V332c0 4.4 3.6 8 8 8s8-3.6 8-8V228c.2.1.4.2.6.4.1.1.2.1.3.2 2.3 1.7 5.6 3.6 7.7 1.6 2.1-2 2.5-5.2 1-7.6-2.1-3.3-4.1-6.5-6.2-9.8-2.1-3.3-4.1-6.6-6.2-9.8-1.1-1.7-3-2.8-5.1-2.8s-4 1-5.1 2.8c-2.1 3.3-4.2 6.6-6.2 9.8-2.1 3.3-4.1 6.5-6.2 9.8-1.6 2.3-1.3 5.5.8 7.5zm121.2 69c2 2 5.2.3 7.5-1.3.4-.2.7-.5 1.1-.7V332c0 4.4 3.6 8 8 8s8-3.6 8-8v-35c.2.1.4.2.6.4.1.1.2.1.3.2 2.3 1.7 5.6 3.6 7.7 1.6s2.5-5.2 1-7.6c-2.1-3.3-4.1-6.5-6.2-9.8s-4.1-6.6-6.2-9.8c-1.1-1.7-3-2.8-5.1-2.8s-4 1-5.1 2.8c-2.1 3.3-4.2 6.6-6.2 9.8-2.1 3.3-4.1 6.5-6.2 9.8-1.6 2.3-1.2 5.5.8 7.5zm93.9 11c-2-2-5.2-.3-7.5 1.3-.4.2-.7.5-1.1.7v-34.9c0-4.4-3.6-8-8-8s-8 3.6-8 8v35c-.2-.1-.4-.2-.6-.4-.1-.1-.2-.1-.3-.2-2.3-1.7-5.6-3.6-7.7-1.6s-2.5 5.2-1 7.6c2.1 3.3 4.1 6.5 6.2 9.8s4.1 6.6 6.2 9.8c1.1 1.7 3 2.8 5.1 2.8s4-1 5.1-2.8c2.1-3.3 4.2-6.6 6.2-9.8 2.1-3.3 4.1-6.5 6.2-9.8 1.6-2.4 1.2-5.5-.8-7.5zm-242.5 0c-2-2-5.2-.3-7.5 1.3-.4.2-.7.5-1.1.7v-54.9c0-4.4-3.6-8-8-8s-8 3.6-8 8v55c-.2-.1-.4-.2-.6-.4-.1-.1-.2-.1-.3-.2-2.3-1.7-5.6-3.6-7.7-1.6-2.1 2-2.5 5.2-1 7.6 2.1 3.3 4.1 6.5 6.2 9.8s4.1 6.6 6.2 9.8c1.1 1.7 3 2.8 5.1 2.8s4-1 5.1-2.8c2.1-3.3 4.2-6.6 6.2-9.8 2.1-3.3 4.1-6.5 6.2-9.8 1.6-2.4 1.2-5.5-.8-7.5zm121.2 0c-2-2-5.2-.3-7.5 1.3-.4.2-.7.5-1.1.7V208.2c0-4.4-3.6-8-8-8s-8 3.6-8 8v104c-.2-.1-.4-.2-.6-.4-.1-.1-.2-.1-.3-.2-2.3-1.7-5.6-3.6-7.7-1.6-2.1 2-2.5 5.2-1 7.6 2.1 3.3 4.1 6.5 6.2 9.8 2.1 3.3 4.1 6.6 6.2 9.8 1.1 1.7 3 2.8 5.1 2.8s4-1 5.1-2.8c2.1-3.3 4.2-6.6 6.2-9.8 2.1-3.3 4.1-6.5 6.2-9.8 1.6-2.4 1.3-5.5-.8-7.5z"/></svg>